<svg width="194" height="194" xmlns="http://www.w3.org/2000/svg">
    <defs>
        <clipPath clipPathUnits="userSpaceOnUse" id="cp1">
            <path d="m-244.45,959.69l793.76,0l0,-1122.56l-793.76,0l0,1122.56z" id="svg_1" />
        </clipPath>
        <clipPath clipPathUnits="userSpaceOnUse" id="cp2">
            <path d="m-244.45,959.69l793.76,0l0,-1122.56l-793.76,0l0,1122.56z" id="svg_2" />
        </clipPath>
        <clipPath clipPathUnits="userSpaceOnUse" id="cp3">
            <path d="m-244.45,959.69l793.76,0l0,-1122.56l-793.76,0l0,1122.56z" id="svg_3" />
        </clipPath>
        <clipPath clipPathUnits="userSpaceOnUse" id="cp4">
            <path d="m-244.45,959.69l793.76,0l0,-1122.56l-793.76,0l0,1122.56z" id="svg_4" />
        </clipPath>
        <clipPath clipPathUnits="userSpaceOnUse" id="cp5">
            <path d="m-244.45,959.69l793.76,0l0,-1122.56l-793.76,0l0,1122.56z" id="svg_5" />
        </clipPath>
        <clipPath clipPathUnits="userSpaceOnUse" id="cp6">
            <path d="m-244.45,959.69l793.76,0l0,-1122.56l-793.76,0l0,1122.56z" id="svg_6" />
        </clipPath>
        <clipPath clipPathUnits="userSpaceOnUse" id="cp7">
            <path d="m-244.45,959.69l793.76,0l0,-1122.56l-793.76,0l0,1122.56z" id="svg_7" />
        </clipPath>
        <clipPath clipPathUnits="userSpaceOnUse" id="cp8">
            <path d="m-244.45,959.69l793.76,0l0,-1122.56l-793.76,0l0,1122.56z" id="svg_8" />
        </clipPath>
        <clipPath clipPathUnits="userSpaceOnUse" id="cp9">
            <path d="m-244.45,959.69l793.76,0l0,-1122.56l-793.76,0l0,1122.56z" id="svg_9" />
        </clipPath>
        <clipPath clipPathUnits="userSpaceOnUse" id="cp10">
            <path d="m-244.45,959.69l793.76,0l0,-1122.56l-793.76,0l0,1122.56z" id="svg_10" />
        </clipPath>
        <clipPath clipPathUnits="userSpaceOnUse" id="cp11">
            <path d="m-244.45,959.69l793.76,0l0,-1122.56l-793.76,0l0,1122.56z" id="svg_11" />
        </clipPath>
        <clipPath clipPathUnits="userSpaceOnUse" id="cp12">
            <path d="m-244.45,959.69l793.76,0l0,-1122.56l-793.76,0l0,1122.56z" id="svg_12" />
        </clipPath>
        <clipPath clipPathUnits="userSpaceOnUse" id="cp13">
            <path d="m-244.45,959.69l793.76,0l0,-1122.56l-793.76,0l0,1122.56z" id="svg_13" />
        </clipPath>
        <clipPath clipPathUnits="userSpaceOnUse" id="cp14">
            <path d="m-244.45,959.69l793.76,0l0,-1122.56l-793.76,0l0,1122.56z" id="svg_14" />
        </clipPath>
        <clipPath clipPathUnits="userSpaceOnUse" id="cp15">
            <path d="m-244.45,959.69l793.76,0l0,-1122.56l-793.76,0l0,1122.56z" id="svg_15" />
        </clipPath>
        <clipPath clipPathUnits="userSpaceOnUse" id="cp16">
            <path d="m-244.45,959.69l793.76,0l0,-1122.56l-793.76,0l0,1122.56z" id="svg_16" />
        </clipPath>
        <clipPath clipPathUnits="userSpaceOnUse" id="cp17">
            <path d="m-244.45,959.69l793.76,0l0,-1122.56l-793.76,0l0,1122.56z" id="svg_17" />
        </clipPath>
        <clipPath clipPathUnits="userSpaceOnUse" id="cp18">
            <path d="m-244.45,959.69l793.76,0l0,-1122.56l-793.76,0l0,1122.56z" id="svg_18" />
        </clipPath>
        <clipPath clipPathUnits="userSpaceOnUse" id="cp19">
            <path d="m-244.45,-162.87l793.76,0l0,1122.56l-793.76,0" id="svg_19" />
        </clipPath>
        <clipPath clipPathUnits="userSpaceOnUse" id="cp20">
            <path d="m-244.45,-162.87l793.76,0l0,1122.56l-793.76,0" id="svg_20" />
        </clipPath>
        <clipPath clipPathUnits="userSpaceOnUse" id="cp21">
            <path d="m-244.45,-162.87l793.76,0l0,1122.56l-793.76,0" id="svg_21" />
        </clipPath>
        <clipPath clipPathUnits="userSpaceOnUse" id="cp22">
            <path d="m-244.45,-162.87l793.76,0l0,1122.56l-793.76,0" id="svg_22" />
        </clipPath>
        <clipPath clipPathUnits="userSpaceOnUse" id="cp23">
            <path d="m-244.45,-162.87l793.76,0l0,1122.56l-793.76,0" id="svg_23" />
        </clipPath>
        <clipPath clipPathUnits="userSpaceOnUse" id="cp24">
            <path d="m-244.45,-162.87l793.76,0l0,1122.56l-793.76,0" id="svg_24" />
        </clipPath>
        <clipPath clipPathUnits="userSpaceOnUse" id="cp25">
            <path d="m-244.45,-162.87l793.76,0l0,1122.56l-793.76,0" id="svg_25" />
        </clipPath>
        <clipPath clipPathUnits="userSpaceOnUse" id="cp26">
            <path d="m-244.45,-162.87l793.76,0l0,1122.56l-793.76,0" id="svg_26" />
        </clipPath>
        <clipPath clipPathUnits="userSpaceOnUse" id="cp27">
            <path d="m-244.45,-162.87l793.76,0l0,1122.56l-793.76,0" id="svg_27" />
        </clipPath>
        <clipPath clipPathUnits="userSpaceOnUse" id="cp28">
            <path d="m-244.45,-162.87l793.76,0l0,1122.56l-793.76,0" id="svg_28" />
        </clipPath>
        <clipPath clipPathUnits="userSpaceOnUse" id="cp29">
            <path d="m-244.45,-162.87l793.76,0l0,1122.56l-793.76,0" id="svg_29" />
        </clipPath>
        <clipPath clipPathUnits="userSpaceOnUse" id="cp30">
            <path d="m-244.45,-162.87l793.76,0l0,1122.56l-793.76,0" id="svg_30" />
        </clipPath>
        <clipPath clipPathUnits="userSpaceOnUse" id="cp31">
            <path d="m-244.45,-162.87l793.76,0l0,1122.56l-793.76,0" id="svg_31" />
        </clipPath>
        <clipPath clipPathUnits="userSpaceOnUse" id="cp32">
            <path d="m-244.45,-162.87l793.76,0l0,1122.56l-793.76,0" id="svg_32" />
        </clipPath>
        <clipPath clipPathUnits="userSpaceOnUse" id="cp33">
            <path d="m-244.45,-162.87l793.76,0l0,1122.56l-793.76,0" id="svg_33" />
        </clipPath>
        <clipPath clipPathUnits="userSpaceOnUse" id="cp34">
            <path d="m-244.45,-162.87l793.76,0l0,1122.56l-793.76,0" id="svg_34" />
        </clipPath>
        <clipPath clipPathUnits="userSpaceOnUse" id="cp35">
            <path d="m-244.45,-162.87l793.76,0l0,1122.56l-793.76,0" id="svg_35" />
        </clipPath>
        <clipPath clipPathUnits="userSpaceOnUse" id="cp36">
            <path d="m-244.45,-162.87l793.76,0l0,1122.56l-793.76,0" id="svg_36" />
        </clipPath>
        <clipPath clipPathUnits="userSpaceOnUse" id="cp37">
            <path d="m-244.45,-162.87l793.76,0l0,1122.56l-793.76,0" id="svg_37" />
        </clipPath>
        <clipPath clipPathUnits="userSpaceOnUse" id="cp38">
            <path d="m-244.45,-162.87l793.76,0l0,1122.56l-793.76,0" id="svg_38" />
        </clipPath>
        <clipPath clipPathUnits="userSpaceOnUse" id="cp39">
            <path d="m-244.45,-162.87l793.76,0l0,1122.56l-793.76,0" id="svg_39" />
        </clipPath>
        <clipPath clipPathUnits="userSpaceOnUse" id="cp40">
            <path d="m-244.45,-162.87l793.76,0l0,1122.56l-793.76,0" id="svg_40" />
        </clipPath>
        <clipPath clipPathUnits="userSpaceOnUse" id="cp41">
            <path d="m-244.45,-162.87l793.76,0l0,1122.56l-793.76,0" id="svg_41" />
        </clipPath>
        <clipPath clipPathUnits="userSpaceOnUse" id="cp42">
            <path d="m-244.45,-162.87l793.76,0l0,1122.56l-793.76,0" id="svg_42" />
        </clipPath>
        <clipPath clipPathUnits="userSpaceOnUse" id="cp43">
            <path d="m-244.45,-162.87l793.76,0l0,1122.56l-793.76,0" id="svg_43" />
        </clipPath>
        <clipPath clipPathUnits="userSpaceOnUse" id="cp44">
            <path d="m-244.45,-162.87l793.76,0l0,1122.56l-793.76,0" id="svg_44" />
        </clipPath>
        <clipPath clipPathUnits="userSpaceOnUse" id="cp45">
            <path d="m-244.45,-162.87l793.76,0l0,1122.56l-793.76,0" id="svg_45" />
        </clipPath>
        <clipPath clipPathUnits="userSpaceOnUse" id="cp46">
            <path d="m-244.45,-162.87l793.76,0l0,1122.56l-793.76,0" id="svg_46" />
        </clipPath>
        <clipPath clipPathUnits="userSpaceOnUse" id="cp47">
            <path d="m-244.45,-162.87l793.76,0l0,1122.56l-793.76,0" id="svg_47" />
        </clipPath>
        <clipPath clipPathUnits="userSpaceOnUse" id="cp48">
            <path d="m-244.45,-162.87l793.76,0l0,1122.56l-793.76,0" id="svg_48" />
        </clipPath>
        <clipPath clipPathUnits="userSpaceOnUse" id="cp49">
            <path d="m-244.45,-162.87l793.76,0l0,1122.56l-793.76,0" id="svg_49" />
        </clipPath>
        <clipPath clipPathUnits="userSpaceOnUse" id="cp50">
            <path d="m-244.45,-162.87l793.76,0l0,1122.56l-793.76,0" id="svg_50" />
        </clipPath>
        <clipPath clipPathUnits="userSpaceOnUse" id="cp51">
            <path d="m-244.45,-162.87l793.76,0l0,1122.56l-793.76,0" id="svg_51" />
        </clipPath>
        <clipPath clipPathUnits="userSpaceOnUse" id="cp52">
            <path d="m-244.45,-162.87l793.76,0l0,1122.56l-793.76,0" id="svg_52" />
        </clipPath>
        <clipPath clipPathUnits="userSpaceOnUse" id="cp53">
            <path d="m-244.45,-162.87l793.76,0l0,1122.56l-793.76,0" id="svg_53" />
        </clipPath>
        <clipPath clipPathUnits="userSpaceOnUse" id="cp54">
            <path d="m-244.45,-162.87l793.76,0l0,1122.56l-793.76,0" id="svg_54" />
        </clipPath>
        <clipPath clipPathUnits="userSpaceOnUse" id="cp55">
            <path d="m-244.45,-162.87l793.76,0l0,1122.56l-793.76,0" id="svg_55" />
        </clipPath>
        <clipPath clipPathUnits="userSpaceOnUse" id="cp56">
            <path d="m-244.45,-162.87l793.76,0l0,1122.56l-793.76,0" id="svg_56" />
        </clipPath>
        <clipPath clipPathUnits="userSpaceOnUse" id="cp57">
            <path d="m-244.45,-162.87l793.76,0l0,1122.56l-793.76,0" id="svg_57" />
        </clipPath>
        <clipPath clipPathUnits="userSpaceOnUse" id="cp58">
            <path d="m-244.45,-162.87l793.76,0l0,1122.56l-793.76,0" id="svg_58" />
        </clipPath>
    </defs>
    <g>
        <title>Layer 1</title>
        <path
            class="shp1"
            d="m24.03509,59.70884c7.47,-1.59 15.3,-0.94 22.44,1.98l40.31,-40.31c5.61,-5.6 14.91,-5.41 20.52,0.2c5.6,5.61 5.6,14.98 0,20.59l-10.34,10.34l-15.51,-15.5l-12.29,12.29l43.46,43.44l12.28,-12.29l-15.49,-15.48l10.23,-10.23l0.06,-0.06c12.51,-12.5 12.5,-32.77 0,-45.26c-12.5,-12.51 -32.81,-12.58 -45.31,-0.08c0,0 -50.4,50.4 -50.36,50.37m110.38,-35.57c1.6,7.46 0.94,15.29 -1.98,22.44l40.31,40.31c5.61,5.61 5.41,14.91 -0.19,20.51c-5.61,5.61 -14.99,5.61 -20.6,0l-10.33,-10.34l15.49,-15.5l-12.28,-12.29l-43.45,43.46l12.29,12.27l15.48,-15.48l10.23,10.22l0.06,0.07c12.5,12.49 32.77,12.49 45.27,0c12.5,-12.51 12.58,-32.81 0.08,-45.31c0,0 -50.4,-50.4 -50.38,-50.36m35.65,110.31c-7.47,1.59 -15.29,0.92 -22.44,-1.99l-40.31,40.32c-5.61,5.61 -14.91,5.4 -20.51,-0.2c-5.61,-5.61 -5.61,-14.98 0,-20.59l10.33,-10.35l15.5,15.51l12.3,-12.28l-43.46,-43.46l-12.28,12.28l15.49,15.5l-10.23,10.22l-0.06,0.07c-12.5,12.49 -12.5,32.76 0,45.26c12.5,12.5 32.81,12.58 45.31,0.08c0,0 50.4,-50.4 50.36,-50.37m-110.35,35.59c-1.6,-7.47 -0.94,-15.28 1.98,-22.44l-40.31,-40.31c-5.61,-5.6 -5.41,-14.9 0.2,-20.5c5.6,-5.62 14.98,-5.62 20.58,0l10.35,10.33l-15.51,15.5l12.29,12.29l43.45,-43.45l-12.28,-12.29l-15.5,15.5l-10.23,-10.23l-0.05,-0.06c-12.5,-12.51 -32.77,-12.5 -45.27,0c-12.5,12.5 -12.58,32.8 -0.08,45.3c0,0 50.4,50.41 50.38,50.36"
            fill="#8f1329"
            id="svg_274"
        />
    </g>
</svg>
