<svg xmlns="http://www.w3.org/2000/svg" viewBox="0 0 253 256" width="253" height="256"><defs><clipPath clipPathUnits="userSpaceOnUse" id="cp1"><path d="M-244.45 959.69L549.31 959.69L549.31 -162.87L-244.45 -162.87L-244.45 959.69Z" /></clipPath><clipPath clipPathUnits="userSpaceOnUse" id="cp2"><path d="M-244.45 959.69L549.31 959.69L549.31 -162.87L-244.45 -162.87L-244.45 959.69Z" /></clipPath><clipPath clipPathUnits="userSpaceOnUse" id="cp3"><path d="M-244.45 959.69L549.31 959.69L549.31 -162.87L-244.45 -162.87L-244.45 959.69Z" /></clipPath><clipPath clipPathUnits="userSpaceOnUse" id="cp4"><path d="M-244.45 959.69L549.31 959.69L549.31 -162.87L-244.45 -162.87L-244.45 959.69Z" /></clipPath><clipPath clipPathUnits="userSpaceOnUse" id="cp5"><path d="M-244.45 959.69L549.31 959.69L549.31 -162.87L-244.45 -162.87L-244.45 959.69Z" /></clipPath><clipPath clipPathUnits="userSpaceOnUse" id="cp6"><path d="M-244.45 959.69L549.31 959.69L549.31 -162.87L-244.45 -162.87L-244.45 959.69Z" /></clipPath><clipPath clipPathUnits="userSpaceOnUse" id="cp7"><path d="M-244.45 959.69L549.31 959.69L549.31 -162.87L-244.45 -162.87L-244.45 959.69Z" /></clipPath><clipPath clipPathUnits="userSpaceOnUse" id="cp8"><path d="M-244.45 959.69L549.31 959.69L549.31 -162.87L-244.45 -162.87L-244.45 959.69Z" /></clipPath><clipPath clipPathUnits="userSpaceOnUse" id="cp9"><path d="M-244.45 959.69L549.31 959.69L549.31 -162.87L-244.45 -162.87L-244.45 959.69Z" /></clipPath><clipPath clipPathUnits="userSpaceOnUse" id="cp10"><path d="M-244.45 959.69L549.31 959.69L549.31 -162.87L-244.45 -162.87L-244.45 959.69Z" /></clipPath><clipPath clipPathUnits="userSpaceOnUse" id="cp11"><path d="M-244.45 959.69L549.31 959.69L549.31 -162.87L-244.45 -162.87L-244.45 959.69Z" /></clipPath><clipPath clipPathUnits="userSpaceOnUse" id="cp12"><path d="M-244.45 959.69L549.31 959.69L549.31 -162.87L-244.45 -162.87L-244.45 959.69Z" /></clipPath><clipPath clipPathUnits="userSpaceOnUse" id="cp13"><path d="M-244.45 959.69L549.31 959.69L549.31 -162.87L-244.45 -162.87L-244.45 959.69Z" /></clipPath><clipPath clipPathUnits="userSpaceOnUse" id="cp14"><path d="M-244.45 959.69L549.31 959.69L549.31 -162.87L-244.45 -162.87L-244.45 959.69Z" /></clipPath><clipPath clipPathUnits="userSpaceOnUse" id="cp15"><path d="M-244.45 959.69L549.31 959.69L549.31 -162.87L-244.45 -162.87L-244.45 959.69Z" /></clipPath><clipPath clipPathUnits="userSpaceOnUse" id="cp16"><path d="M-244.45 959.69L549.31 959.69L549.31 -162.87L-244.45 -162.87L-244.45 959.69Z" /></clipPath><clipPath clipPathUnits="userSpaceOnUse" id="cp17"><path d="M-244.45 959.69L549.31 959.69L549.31 -162.87L-244.45 -162.87L-244.45 959.69Z" /></clipPath><clipPath clipPathUnits="userSpaceOnUse" id="cp18"><path d="M-244.45 959.69L549.31 959.69L549.31 -162.87L-244.45 -162.87L-244.45 959.69Z" /></clipPath><clipPath clipPathUnits="userSpaceOnUse" id="cp19"><path d="M-244.45 -162.87L549.31 -162.87L549.31 959.69L-244.45 959.69" /></clipPath><clipPath clipPathUnits="userSpaceOnUse" id="cp20"><path d="M-244.45 -162.87L549.31 -162.87L549.31 959.69L-244.45 959.69" /></clipPath><clipPath clipPathUnits="userSpaceOnUse" id="cp21"><path d="M-244.45 -162.87L549.31 -162.87L549.31 959.69L-244.45 959.69" /></clipPath><clipPath clipPathUnits="userSpaceOnUse" id="cp22"><path d="M-244.45 -162.87L549.31 -162.87L549.31 959.69L-244.45 959.69" /></clipPath><clipPath clipPathUnits="userSpaceOnUse" id="cp23"><path d="M-244.45 -162.87L549.31 -162.87L549.31 959.69L-244.45 959.69" /></clipPath><clipPath clipPathUnits="userSpaceOnUse" id="cp24"><path d="M-244.45 -162.87L549.31 -162.87L549.31 959.69L-244.45 959.69" /></clipPath><clipPath clipPathUnits="userSpaceOnUse" id="cp25"><path d="M-244.45 -162.87L549.31 -162.87L549.31 959.69L-244.45 959.69" /></clipPath><clipPath clipPathUnits="userSpaceOnUse" id="cp26"><path d="M-244.45 -162.87L549.31 -162.87L549.31 959.69L-244.45 959.69" /></clipPath><clipPath clipPathUnits="userSpaceOnUse" id="cp27"><path d="M-244.45 -162.87L549.31 -162.87L549.31 959.69L-244.45 959.69" /></clipPath><clipPath clipPathUnits="userSpaceOnUse" id="cp28"><path d="M-244.45 -162.87L549.31 -162.87L549.31 959.69L-244.45 959.69" /></clipPath><clipPath clipPathUnits="userSpaceOnUse" id="cp29"><path d="M-244.45 -162.87L549.31 -162.87L549.31 959.69L-244.45 959.69" /></clipPath><clipPath clipPathUnits="userSpaceOnUse" id="cp30"><path d="M-244.45 -162.87L549.31 -162.87L549.31 959.69L-244.45 959.69" /></clipPath><clipPath clipPathUnits="userSpaceOnUse" id="cp31"><path d="M-244.45 -162.87L549.31 -162.87L549.31 959.69L-244.45 959.69" /></clipPath><clipPath clipPathUnits="userSpaceOnUse" id="cp32"><path d="M-244.45 -162.87L549.31 -162.87L549.31 959.69L-244.45 959.69" /></clipPath><clipPath clipPathUnits="userSpaceOnUse" id="cp33"><path d="M-244.45 -162.87L549.31 -162.87L549.31 959.69L-244.45 959.69" /></clipPath><clipPath clipPathUnits="userSpaceOnUse" id="cp34"><path d="M-244.45 -162.87L549.31 -162.87L549.31 959.69L-244.45 959.69" /></clipPath><clipPath clipPathUnits="userSpaceOnUse" id="cp35"><path d="M-244.45 -162.87L549.31 -162.87L549.31 959.69L-244.45 959.69" /></clipPath><clipPath clipPathUnits="userSpaceOnUse" id="cp36"><path d="M-244.45 -162.87L549.31 -162.87L549.31 959.69L-244.45 959.69" /></clipPath><clipPath clipPathUnits="userSpaceOnUse" id="cp37"><path d="M-244.45 -162.87L549.31 -162.87L549.31 959.69L-244.45 959.69" /></clipPath><clipPath clipPathUnits="userSpaceOnUse" id="cp38"><path d="M-244.45 -162.87L549.31 -162.87L549.31 959.69L-244.45 959.69" /></clipPath><clipPath clipPathUnits="userSpaceOnUse" id="cp39"><path d="M-244.45 -162.87L549.31 -162.87L549.31 959.69L-244.45 959.69" /></clipPath><clipPath clipPathUnits="userSpaceOnUse" id="cp40"><path d="M-244.45 -162.87L549.31 -162.87L549.31 959.69L-244.45 959.69" /></clipPath><clipPath clipPathUnits="userSpaceOnUse" id="cp41"><path d="M-244.45 -162.87L549.31 -162.87L549.31 959.69L-244.45 959.69" /></clipPath><clipPath clipPathUnits="userSpaceOnUse" id="cp42"><path d="M-244.45 -162.87L549.31 -162.87L549.31 959.69L-244.45 959.69" /></clipPath><clipPath clipPathUnits="userSpaceOnUse" id="cp43"><path d="M-244.45 -162.87L549.31 -162.87L549.31 959.69L-244.45 959.69" /></clipPath><clipPath clipPathUnits="userSpaceOnUse" id="cp44"><path d="M-244.45 -162.87L549.31 -162.87L549.31 959.69L-244.45 959.69" /></clipPath><clipPath clipPathUnits="userSpaceOnUse" id="cp45"><path d="M-244.45 -162.87L549.31 -162.87L549.31 959.69L-244.45 959.69" /></clipPath><clipPath clipPathUnits="userSpaceOnUse" id="cp46"><path d="M-244.45 -162.87L549.31 -162.87L549.31 959.69L-244.45 959.69" /></clipPath><clipPath clipPathUnits="userSpaceOnUse" id="cp47"><path d="M-244.45 -162.87L549.31 -162.87L549.31 959.69L-244.45 959.69" /></clipPath><clipPath clipPathUnits="userSpaceOnUse" id="cp48"><path d="M-244.45 -162.87L549.31 -162.87L549.31 959.69L-244.45 959.69" /></clipPath><clipPath clipPathUnits="userSpaceOnUse" id="cp49"><path d="M-244.45 -162.87L549.31 -162.87L549.31 959.69L-244.45 959.69" /></clipPath><clipPath clipPathUnits="userSpaceOnUse" id="cp50"><path d="M-244.45 -162.87L549.31 -162.87L549.31 959.69L-244.45 959.69" /></clipPath><clipPath clipPathUnits="userSpaceOnUse" id="cp51"><path d="M-244.45 -162.87L549.31 -162.87L549.31 959.69L-244.45 959.69" /></clipPath><clipPath clipPathUnits="userSpaceOnUse" id="cp52"><path d="M-244.45 -162.87L549.31 -162.87L549.31 959.69L-244.45 959.69" /></clipPath><clipPath clipPathUnits="userSpaceOnUse" id="cp53"><path d="M-244.45 -162.87L549.31 -162.87L549.31 959.69L-244.45 959.69" /></clipPath><clipPath clipPathUnits="userSpaceOnUse" id="cp54"><path d="M-244.45 -162.87L549.31 -162.87L549.31 959.69L-244.45 959.69" /></clipPath><clipPath clipPathUnits="userSpaceOnUse" id="cp55"><path d="M-244.45 -162.87L549.31 -162.87L549.31 959.69L-244.45 959.69" /></clipPath><clipPath clipPathUnits="userSpaceOnUse" id="cp56"><path d="M-244.45 -162.87L549.31 -162.87L549.31 959.69L-244.45 959.69" /></clipPath><clipPath clipPathUnits="userSpaceOnUse" id="cp57"><path d="M-244.45 -162.87L549.31 -162.87L549.31 959.69L-244.45 959.69" /></clipPath><clipPath clipPathUnits="userSpaceOnUse" id="cp58"><path d="M-244.45 -162.87L549.31 -162.87L549.31 959.69L-244.45 959.69" /></clipPath></defs><style>tspan { white-space:pre }.shp0 { fill: #7e7e7e } .shp1 { fill: #8f1329 } </style><g ><g ><g clip-path="url(#cp1)"><g ></g></g></g><g ><g clip-path="url(#cp2)"><g ></g></g></g><g ><g clip-path="url(#cp3)"><g ></g></g></g><g ><g clip-path="url(#cp4)"><g ></g></g></g><g ><g clip-path="url(#cp5)"><g ></g></g></g><g ><g clip-path="url(#cp6)"><g ></g></g></g><g ><g clip-path="url(#cp7)"><g ></g></g></g><g ><g clip-path="url(#cp8)"><g ></g></g></g><g ><g clip-path="url(#cp9)"><g ></g></g></g><g ><g clip-path="url(#cp10)"><g ></g></g></g><g ><g clip-path="url(#cp11)"><g ></g></g></g><g ><g clip-path="url(#cp12)"><g ></g></g></g><g ><g clip-path="url(#cp13)"><g ></g></g></g><g ><g clip-path="url(#cp14)"><g ></g></g></g><g ><g clip-path="url(#cp15)"><g ></g></g></g><g ><g clip-path="url(#cp16)"><g ></g></g></g><g ><g clip-path="url(#cp17)"><g ></g></g></g><g ><g clip-path="url(#cp18)"><g ></g></g></g><g ><g clip-path="url(#cp19)"><g ><g ></g></g></g></g><g ><g clip-path="url(#cp20)"><g ><path fill-rule="evenodd" class="shp0" d="M68.71 218.28C68.75 218.44 68.73 218.57 68.65 218.67C68.45 218.92 68.23 218.95 67.97 218.75C67.79 218.6 67.61 218.43 67.43 218.2C66.29 217.6 65.13 216.96 63.92 216.24C63.35 215.88 62.84 215.56 62.39 215.27L61.21 216.76L66.21 220.68L67.84 220.4C68.09 221.2 68.28 221.88 68.4 222.47C68.48 222.68 68.47 222.85 68.36 222.99C68.13 223.28 67.87 223.29 67.55 223.04L60.59 217.56L60.25 217.99C61.03 218.93 61.8 219.95 62.56 221.01C63.39 222.27 64 223.29 64.37 224.09C64.69 224.73 64.88 225.23 64.93 225.57C65 225.96 65.03 226.31 65.01 226.61C64.97 226.88 64.88 227.09 64.73 227.28C64.45 227.64 64.16 227.69 63.85 227.45C63.71 227.33 63.57 227.12 63.47 226.81C63.35 226.56 63.23 226.24 63.09 225.83C62.91 225.16 62.69 224.56 62.47 224.03C62.19 223.37 61.81 222.64 61.36 221.81C60.91 220.91 60.36 219.87 59.71 218.67L57.99 220.87C57.79 221.12 57.67 221.29 57.64 221.39C57.49 221.63 57.36 221.83 57.25 221.96C57.16 222.08 57.08 222.16 57.01 222.2L56.97 222.21L59.88 224.51L61.07 224.21C61.35 224.91 61.49 225.45 61.51 225.83C61.53 226.04 61.49 226.2 61.41 226.32C61.27 226.49 60.91 226.55 60.29 226.47L57.89 229.53C57.23 230.37 56.81 230.92 56.65 231.19C56.36 231.6 56.15 231.88 56.03 232.04C55.87 232.23 55.65 232.33 55.36 232.36C55.11 232.29 54.92 232.21 54.8 232.12C54.44 231.84 54.37 231.57 54.57 231.31L54.97 230.8L47.93 225.25L47.53 225.76C47.32 226.03 47.04 226.01 46.68 225.72C46.56 225.63 46.44 225.47 46.32 225.24C46.27 224.96 46.33 224.72 46.48 224.52C46.65 224.31 46.88 224.04 47.17 223.72C47.44 223.52 47.91 223 48.55 222.17L51.29 218.71C51.63 218.28 51.93 217.79 52.21 217.25L52.87 218.97L55.69 221.2L55.71 221.19C55.91 220.93 56.16 220.63 56.48 220.27C56.81 219.89 57.11 219.55 57.33 219.25L59.03 217.11C58.4 217.39 57.68 217.52 56.87 217.51C55.57 217.52 54.25 217.43 52.89 217.21C51.61 217.01 49.99 216.56 48.05 215.85L48.15 215.12C50.08 215.61 51.64 215.95 52.83 216.12C53.87 216.27 54.91 216.31 55.96 216.25C56.96 216.25 57.91 216.21 58.79 216.15L54.21 212.55C53.41 211.93 52.81 211.49 52.43 211.24L52.85 209.81C53.37 210.45 54.04 211.09 54.85 211.73L60.04 215.83L61.15 214.41C60.69 214.13 60.17 213.79 59.59 213.39C58.37 212.57 56.83 211.47 54.92 210.04L55.4 209.28C56.45 210.07 57.55 210.81 58.65 211.55C59.71 212.25 60.73 212.91 61.76 213.49C62.89 214.16 63.89 214.71 64.73 215.13C65.48 215.55 66.16 215.85 66.75 216.07C67.21 216.25 67.68 216.43 68.15 216.59C68.4 217.21 68.59 217.77 68.71 218.28ZM52.21 219.83L50.77 221.65L57.81 227.2L59.25 225.37L52.21 219.83ZM50.12 222.48L48.57 224.44L55.61 229.99L57.16 228.03L50.12 222.48Z" /></g></g></g><g ><g clip-path="url(#cp21)"><g ><path fill-rule="evenodd" class="shp0" d="M88.12 228.17C88.32 228.39 88.39 228.6 88.31 228.79C88.21 229 88.01 229.09 87.72 229.07C87.41 229.11 87.15 229.08 86.92 229.01L86.27 230.53L89.33 231.83L89.91 230.49C90.19 229.81 90.41 229.2 90.59 228.67C91.48 229.16 92.13 229.61 92.57 230.04C92.8 230.28 92.88 230.49 92.8 230.68C92.71 230.91 92.51 231 92.19 230.96C91.88 230.99 91.6 230.97 91.37 230.89L90.72 232.41L91.92 232.92L93.39 232.32C93.84 232.97 94.2 233.55 94.45 234.05C94.59 234.21 94.63 234.39 94.56 234.53C94.4 234.89 94.17 235.01 93.87 234.88L90.32 233.39L89.08 236.31L91.24 237.21L92.73 236.53C93.21 237.28 93.57 237.88 93.84 238.36C93.95 238.56 93.97 238.75 93.91 238.89C93.77 239.23 93.52 239.32 93.17 239.17L88.65 237.27C88.83 237.55 89.01 237.91 89.2 238.33C89.44 238.89 89.72 239.44 90.07 239.97C90.44 240.53 90.83 241.05 91.24 241.52C91.61 241.91 92.04 242.28 92.53 242.61L92.23 243.32C91.45 242.99 90.85 242.99 90.43 243.29C89.92 242.8 89.53 242.32 89.27 241.83C89.13 241.57 89 241.32 88.89 241.08L88.65 240.4L88.64 240.41C88.51 240.55 88.25 240.65 87.89 240.71L87.01 242.81C87.04 242.88 87.12 243.01 87.23 243.21C87.35 243.35 87.39 243.49 87.33 243.61C87.17 243.99 86.96 244.11 86.69 243.99L80.69 241.45L79.91 243.31C79.85 243.44 79.83 243.55 79.85 243.65C79.89 243.77 80 243.89 80.15 244.01C80.41 244.25 80.8 244.48 81.32 244.69L85.63 246.52C86.03 246.68 86.41 246.8 86.81 246.84C87.01 246.87 87.17 246.81 87.31 246.69C87.65 246.4 88.24 245.6 89.09 244.32L89.84 244.81C89.27 245.81 88.91 246.51 88.75 246.88C88.67 247.07 88.69 247.31 88.8 247.57C88.95 247.88 88.97 248.12 88.89 248.32C88.83 248.47 88.71 248.59 88.52 248.68C88.33 248.73 88.08 248.73 87.73 248.68C87.45 248.64 87.07 248.53 86.6 248.37C86.08 248.2 85.57 248.01 85.08 247.8L80.77 245.99C80.41 245.83 80.07 245.64 79.72 245.41C79.43 245.27 79.21 245.11 79.07 244.96C78.76 244.71 78.55 244.47 78.44 244.23C78.33 244.01 78.29 243.79 78.32 243.53C78.33 243.33 78.39 243.09 78.51 242.81L80.82 237.33C80.73 237.48 80.55 237.6 80.28 237.69C79.72 237.89 79.16 238.07 78.59 238.21C77.99 238.33 77.19 238.39 76.2 238.4L76.09 237.56C76.96 237.47 77.69 237.32 78.31 237.16C78.88 236.99 79.47 236.76 80.04 236.48C80.71 236.16 81.27 235.8 81.76 235.39C82.15 235.08 82.44 234.87 82.65 234.73L81.04 234.05C80.11 233.67 79.41 233.41 78.95 233.25L79.03 231.77C79.69 232.24 80.49 232.68 81.45 233.08L83.24 233.84L84.48 230.92L83.95 230.69C83.03 230.32 82.33 230.05 81.89 229.92L81.93 228.41C82.6 228.89 83.4 229.32 84.35 229.72L84.88 229.95L85.45 228.61C85.73 227.93 85.96 227.32 86.13 226.79C87.01 227.27 87.67 227.73 88.12 228.17ZM80.82 237.33C80.85 237.29 80.87 237.25 80.88 237.2L80.82 237.33ZM77.84 235.55C77.03 236.45 76.15 237.37 75.19 238.31C74.31 239.24 73.39 240.13 72.44 240.99C72.03 241.69 71.72 241.99 71.49 241.89C71.32 241.83 71.09 241.08 70.81 239.64C71.85 239.09 73 238.36 74.24 237.44C75.55 236.49 76.69 235.65 77.67 234.89L77.84 235.55ZM84.09 235.35C83.87 235.6 83.57 235.85 83.24 236.09C82.89 236.37 82.53 236.59 82.16 236.76L82.52 237.11L87.01 239.01L87.88 238.63C87.96 238.73 88.04 238.84 88.12 238.93L88.13 238.96L88.07 238.75C87.92 238.21 87.79 237.57 87.69 236.87L84.09 235.35ZM75.93 228.49C76.79 229.28 77.37 229.95 77.72 230.51C78.07 231.01 78.29 231.47 78.4 231.87C78.48 232.19 78.47 232.47 78.37 232.68C78.13 233.25 77.77 233.45 77.31 233.25C77.15 233.19 77.01 233.08 76.89 232.93C76.8 232.8 76.75 232.6 76.72 232.32C76.64 231.68 76.51 231.15 76.32 230.72C76.13 230.23 75.8 229.64 75.32 228.96L75.93 228.49ZM85.87 231.51L84.63 234.43L87.69 235.72L88.93 232.8L85.87 231.51ZM79.45 224.24C80.24 225.01 80.8 225.68 81.13 226.25C81.45 226.73 81.65 227.17 81.75 227.57C81.84 227.85 81.84 228.12 81.73 228.36C81.49 228.92 81.15 229.11 80.67 228.91C80.52 228.84 80.39 228.75 80.28 228.63C80.17 228.49 80.09 228.27 80.07 227.93C80.01 227.35 79.91 226.83 79.75 226.4C79.56 225.92 79.25 225.36 78.83 224.69L79.45 224.24ZM82.11 238.11L81.09 240.49L85.56 242.37L86.57 239.99L82.11 238.11Z" /></g></g></g><g ><g clip-path="url(#cp22)"><g ><path fill-rule="evenodd" class="shp0" d="M113.2 235.69L121.27 236.73L122.13 235.87C122.73 236.31 123.15 236.68 123.35 237.01C123.48 237.21 123.53 237.37 123.52 237.51C123.49 237.72 123.2 237.95 122.64 238.21L121.97 243.41C121.83 244.48 121.76 245.17 121.76 245.49C121.72 246 121.68 246.35 121.65 246.53C121.63 246.79 121.49 246.99 121.25 247.16C120.99 247.21 120.79 247.24 120.64 247.21C120.2 247.16 120 246.97 120.04 246.65L120.07 246.39L116.77 245.96L116.4 248.85L118.8 249.16L120.04 248.12C120.67 248.65 121.19 249.13 121.6 249.56C121.79 249.69 121.87 249.85 121.84 250.04C121.79 250.43 121.57 250.6 121.17 250.55L116.27 249.91L115.8 253.49L119.56 253.97L120.84 252.93C121.43 253.44 121.93 253.93 122.39 254.39C122.55 254.52 122.61 254.68 122.59 254.87C122.55 255.25 122.32 255.41 121.93 255.36L109.12 253.71C108.13 253.6 107.41 253.52 106.93 253.49L106.57 252.07C107.36 252.32 108.25 252.52 109.27 252.65L114.31 253.29L114.77 249.72L112.15 249.39C111.15 249.27 110.4 249.2 109.92 249.19L109.6 247.73C110.36 247.99 111.27 248.19 112.29 248.32L114.91 248.65L115.28 245.76L111.96 245.33L111.92 245.61C111.88 245.93 111.63 246.05 111.16 246C111.01 245.99 110.84 245.91 110.61 245.8C110.41 245.57 110.33 245.35 110.36 245.08C110.4 244.81 110.47 244.47 110.56 244.05C110.69 243.73 110.83 243.04 110.96 241.99L111.69 236.23C111.76 235.71 111.77 235.13 111.72 234.52L113.2 235.69ZM112.53 240.87L112.09 244.29L115.41 244.72L115.85 241.29L112.53 240.87ZM117.88 237.33L117.48 240.43L120.79 240.85L121.17 237.76L117.88 237.33ZM113.07 236.72L112.67 239.8L115.99 240.23L116.39 237.15L113.07 236.72ZM109.77 234.88C110.35 235.37 110.84 235.8 111.25 236.19C111.44 236.32 111.52 236.48 111.49 236.67C111.45 237.04 111.25 237.2 110.92 237.16L107.79 236.76L107.17 241.56L107.87 241.65L109.01 240.84C109.55 241.28 110 241.69 110.35 242.05C110.52 242.17 110.6 242.32 110.57 242.49C110.53 242.85 110.33 243.01 110 242.96L107.04 242.59L106.4 247.6C106.47 247.55 106.55 247.49 106.65 247.47C107.6 247.23 108.75 246.93 110.07 246.57L110.13 247.32C109.08 247.84 108.19 248.21 107.45 248.47C106.65 248.76 105.91 249.01 105.21 249.2C104.56 249.4 103.92 249.56 103.29 249.65C103.07 250.19 102.87 250.44 102.67 250.41C102.44 250.39 102.12 249.63 101.68 248.15C102.73 248.11 103.64 248.01 104.41 247.88C104.61 247.87 104.77 247.85 104.88 247.83L105.57 242.4L105.53 242.39C104.53 242.28 103.79 242.21 103.31 242.19L102.99 240.75C103.75 241.03 104.64 241.24 105.67 241.37L105.71 241.37L106.32 236.57L105.92 236.52C104.93 236.4 104.19 236.33 103.71 236.29L103.4 234.88C104.16 235.13 105.04 235.32 106.05 235.45L108.63 235.79L109.77 234.88ZM117.35 241.48L116.91 244.92L120.2 245.35L120.64 241.91L117.35 241.48Z" /></g></g></g><g ><g clip-path="url(#cp23)"><g ><path fill-rule="evenodd" class="shp0" d="M149.2 234.87C150.03 235.27 150.72 235.63 151.25 235.95C151.49 236.03 151.61 236.17 151.65 236.39C151.71 236.75 151.53 236.96 151.13 237.01L143.31 238.19L145.32 251.55L152 250.55L153.08 249.01C153.88 249.39 154.57 249.75 155.16 250.11C155.36 250.2 155.48 250.33 155.51 250.51C155.56 250.89 155.4 251.12 155 251.19L136.92 253.89C135.93 254.05 135.21 254.19 134.73 254.31L134.04 253C134.84 253.04 135.75 252.99 136.76 252.84L143.75 251.79L141.73 238.43L136.47 239.21C135.48 239.37 134.76 239.52 134.32 239.63L133.57 238.32C134.39 238.37 135.29 238.33 136.31 238.17L148.13 236.4L149.2 234.87Z" /></g></g></g><g ><g clip-path="url(#cp24)"><g ><path fill-rule="evenodd" class="shp0" d="M167.19 226.93C168 226.63 168.71 226.39 169.29 226.23C169.61 226.13 169.81 226.19 169.92 226.41C170.01 226.63 169.97 226.84 169.8 227.07C169.61 227.28 169.48 227.44 169.39 227.55C170.16 229.33 170.69 230.81 171.01 231.96L177.19 229.09L177.79 227.27C178.68 227.43 179.44 227.6 180.09 227.77C180.32 227.8 180.47 227.89 180.55 228.05C180.71 228.39 180.6 228.65 180.23 228.81L171.97 232.65C172.97 233.69 173.87 234.53 174.65 235.17C175.57 235.93 176.45 236.56 177.29 237.07C178.08 237.52 179.05 237.95 180.24 238.33C181.27 238.71 182.23 238.91 183.13 238.92C183.99 239.04 184.85 239.01 185.72 238.84L186.04 239.52C185.12 239.95 184.68 240.47 184.73 241.07C183.29 241.01 182.11 240.8 181.17 240.43C179.93 240.09 178.76 239.59 177.65 238.89C176.43 238.21 175.27 237.4 174.2 236.44C173.37 235.71 172.57 234.89 171.77 234.01L171.48 233.68L171.75 234.81C171.88 235.44 171.99 236.05 172.08 236.68C172.19 238.07 172.13 239.28 171.92 240.29C171.8 241.76 171.45 243.08 170.88 244.28C170.32 245.71 169.33 247.37 167.93 249.27L167.28 248.73C168.19 247.36 168.89 246.15 169.37 245.11C169.81 244.05 170.16 242.97 170.4 241.85C170.67 240.73 170.77 239.49 170.72 238.15C170.72 236.88 170.52 235.45 170.12 233.89C170.08 233.71 170.08 233.57 170.08 233.53L164.6 236.08C163.71 236.51 163.05 236.85 162.64 237.11L161.55 236.05C162.36 235.88 163.23 235.57 164.17 235.15L169.75 232.55C169.44 231.55 169.05 230.56 168.6 229.57C168.09 228.47 167.61 227.59 167.19 226.93L167.19 226.93Z" /></g></g></g><g ><g clip-path="url(#cp25)"><g ><path fill-rule="evenodd" class="shp0" d="M201.97 216.01C202.76 215.95 203.43 215.96 203.97 216.05C204.15 216.07 204.28 216.12 204.37 216.23C204.52 216.39 204.45 216.63 204.21 216.96C203.89 217.31 203.71 217.49 203.65 217.55C203.35 218.31 203 219.07 202.63 219.83C202.37 220.41 202.12 220.91 201.87 221.32C201.88 221.41 201.88 221.49 201.84 221.59L202.31 222.11L206.96 217.96L206.97 216.29C207.8 216.19 208.51 216.12 209.11 216.11C209.32 216.05 209.49 216.11 209.61 216.24C209.85 216.51 209.83 216.77 209.52 217.05L202.99 222.88L204.57 224.65C204.81 224.92 204.92 225.21 204.92 225.53C204.96 225.84 204.88 226.21 204.69 226.64C204.67 226.89 204.47 227.24 204.11 227.68C203.76 227.31 203.49 227.12 203.35 227.11C203.19 227.08 203.01 227.12 202.85 227.21C202.33 227.4 201.76 227.69 201.12 228.11L200.56 227.49C201.56 226.97 202.33 226.47 202.88 225.99C203.05 225.83 203.15 225.71 203.16 225.64C203.17 225.55 203.13 225.45 203.04 225.36L201.79 223.95L196.73 228.47C195.99 229.15 195.45 229.65 195.13 230L193.8 229.32C194.52 228.92 195.28 228.39 196.04 227.69L201.11 223.19L200.73 222.77C200.35 222.36 199.97 221.99 199.64 221.67C200.31 221.31 200.84 221.05 201.24 220.91C201.37 220.87 201.43 220.84 201.4 220.8C201.44 220.44 201.57 220.01 201.79 219.53C201.88 219.07 202.05 218.61 202.31 218.15L196.52 223.31C195.68 224.05 195.15 224.56 194.92 224.85L193.75 224.15C194.36 223.76 195.04 223.21 195.81 222.53L201.77 217.21L201.97 216.01ZM189.93 213.6C190.01 213.6 190.08 213.61 190.15 213.64L190.16 213.64L190.15 213.09C190.95 212.79 191.65 212.59 192.27 212.48C192.49 212.43 192.63 212.43 192.67 212.47C192.63 212.16 192.57 211.87 192.52 211.59C192.48 211.28 192.39 210.92 192.23 210.51C192.91 210.2 193.44 210.03 193.83 210C194.01 209.97 194.15 209.99 194.26 210.03L194.23 210.01C194.84 209.61 195.53 209.07 196.33 208.36L196.91 207.84L197.05 206.44C197.81 206.37 198.41 206.37 198.84 206.43C199.04 206.47 199.19 206.55 199.28 206.64C199.41 206.8 199.41 207.01 199.27 207.29C199.2 207.49 199.13 207.64 199.07 207.73L203.03 212.87L203.59 212.37L203.63 211.37C204.35 211.25 204.97 211.21 205.51 211.23C205.64 211.24 205.75 211.28 205.8 211.36C205.97 211.53 205.93 211.8 205.69 212.13C205.53 212.35 205.4 212.52 205.32 212.65C205.35 212.93 205.35 213.31 205.32 213.76C205.31 214.2 205.23 214.69 205.09 215.21L204.36 215.21C204.33 214.68 204.29 214.25 204.24 213.92C204.19 213.56 204.17 213.33 204.17 213.23L191.56 224.48C191.56 224.49 191.6 224.55 191.69 224.67C191.95 225.03 192.12 225.33 192.24 225.61C192.35 225.83 192.43 226.05 192.45 226.27C192.49 226.48 192.49 226.67 192.45 226.8C192.4 226.93 192.33 227.04 192.24 227.12C191.84 227.48 191.52 227.52 191.28 227.25C191.16 227.11 191.09 226.92 191.07 226.68C191.01 226.12 190.93 225.71 190.85 225.4C190.77 225.11 190.64 224.79 190.44 224.44C190.28 224.16 189.96 223.73 189.49 223.17L190.03 222.71L190.83 223.59C190.84 223.61 190.87 223.64 190.88 223.65L190.91 223.69L191.47 223.19L186.6 218.52C186.25 218.13 185.93 217.81 185.64 217.55L187.45 216.95L187.37 216.91C187.43 216.63 187.51 216.36 187.61 216.09C187.83 215.65 187.96 215.29 188.04 214.99C188.08 214.69 188.11 214.36 188.12 213.97C188.84 213.77 189.45 213.65 189.93 213.6ZM194.41 210.13C194.59 210.33 194.41 210.67 193.88 211.15L193.93 212.28L194.2 212.25C194.48 212.24 194.71 212.24 194.87 212.27C195.09 212.31 195.27 212.36 195.4 212.44C195.55 212.52 195.65 212.61 195.72 212.68C195.99 212.97 196 213.23 195.76 213.44C195.65 213.53 195.52 213.59 195.39 213.59C195.27 213.64 195.01 213.65 194.64 213.61C194.29 213.53 194 213.48 193.77 213.45C193.77 213.69 193.73 213.96 193.65 214.25C193.57 214.56 193.48 214.87 193.35 215.16C193.17 215.51 192.95 215.88 192.69 216.29L191.93 216.03C192.17 215.55 192.32 215.16 192.39 214.87C192.48 214.55 192.53 214.21 192.56 213.85C192.6 213.68 192.65 213.53 192.69 213.44C192.47 213.48 192.21 213.51 191.93 213.53C191.55 213.57 191.12 213.63 190.65 213.71L190.32 213.76L190.33 213.77C190.51 213.97 190.43 214.21 190.09 214.52L189.69 214.88C189.55 215.24 189.37 215.59 189.15 215.93C188.95 216.28 188.75 216.61 188.56 216.91C188.31 217.28 188.11 217.56 187.93 217.76L188.79 218.57L189.96 217.53L190.08 216.39C190.68 216.28 191.2 216.21 191.65 216.17C191.84 216.12 191.99 216.15 192.09 216.27C192.36 216.56 192.36 216.83 192.09 217.05L189.55 219.33L190.69 220.39L191.85 219.36L191.93 218.21C192.53 218.11 193.07 218.04 193.52 218C193.71 217.95 193.85 217.97 193.96 218.09C194.21 218.39 194.23 218.64 193.97 218.87L191.44 221.13L192.57 222.2L201.92 213.85L200.99 212.61L200.37 213.16C199.53 213.91 199 214.41 198.79 214.69L197.57 214.01C198.19 213.63 198.89 213.08 199.68 212.37L200.33 211.79L199.41 210.52L198.77 211.09C197.93 211.85 197.4 212.36 197.19 212.64L195.97 211.96C196.57 211.56 197.27 211.01 198.07 210.29L198.75 209.68L197.84 208.45L197.04 209.16C196.2 209.92 195.65 210.43 195.44 210.68L194.35 210.08C194.37 210.1 194.39 210.11 194.41 210.13ZM194.35 210.08C194.33 210.06 194.3 210.05 194.26 210.03L194.35 210.08ZM196.76 213.41C197.04 213.39 197.23 213.43 197.35 213.56C197.52 213.76 197.35 214.09 196.8 214.57C196.81 214.96 196.77 215.28 196.69 215.52C196.75 215.47 196.84 215.44 196.96 215.43C197.4 215.39 197.72 215.37 197.93 215.39C198.16 215.39 198.35 215.44 198.51 215.52C198.64 215.59 198.73 215.67 198.81 215.76C199.05 216.03 199.05 216.28 198.8 216.51C198.71 216.59 198.6 216.64 198.47 216.68C198.35 216.73 198.09 216.75 197.72 216.73C197.49 216.71 197.29 216.68 197.11 216.67L196.6 216.65L196.44 217.21C196.39 217.39 196.33 217.53 196.28 217.67C196.19 218.01 196.05 218.32 195.91 218.6C195.69 218.97 195.44 219.36 195.13 219.77L194.41 219.56C194.65 219.03 194.84 218.61 194.95 218.29C195.07 217.97 195.16 217.63 195.23 217.24C195.29 217 195.36 216.8 195.44 216.67C195.25 216.75 195.08 216.8 194.95 216.83C194.44 216.89 193.85 217.01 193.17 217.16L193.15 216.45C193.97 216.11 194.69 215.87 195.32 215.73C195.38 215.72 195.41 215.72 195.42 215.72C195.41 215.47 195.43 215.29 195.47 215.13C195.39 214.72 195.29 214.32 195.19 213.93C195.85 213.61 196.39 213.44 196.76 213.41ZM195.42 215.72C195.43 215.73 195.43 215.75 195.43 215.76C195.44 215.74 195.44 215.73 195.42 215.72ZM196.56 216.65C196.57 216.67 196.57 216.67 196.59 216.67L196.6 216.65L196.56 216.65Z" /></g></g></g><g ><g clip-path="url(#cp26)"><g ><g ></g></g></g></g><g ><g clip-path="url(#cp27)"><g ><path fill-rule="evenodd" class="shp0" d="M29.12 203.85L20.09 190.96L24.57 187.61L25.24 188.57C23.92 189.88 23.24 190.88 23.19 191.6C23.13 192.27 23.53 193.21 24.4 194.45L25.16 195.53L38.01 186.53C38.87 185.95 39.35 185.37 39.48 184.84C39.57 184.33 39.29 183.53 38.63 182.45L39.53 181.81L44.29 188.61L43.39 189.25C42.57 188.25 41.88 187.75 41.32 187.71C40.8 187.69 40.05 188.03 39.07 188.72L26.52 197.49L27.32 198.63C28.17 199.84 28.91 200.53 29.55 200.69C30.24 200.89 31.43 200.6 33.11 199.83L33.8 200.8L29.12 203.85Z" /></g></g></g><g ><g clip-path="url(#cp28)"><g ><path fill-rule="evenodd" class="shp0" d="M21.12 187.09L18.21 181.4L18.99 181C19.56 181.87 19.95 182.33 20.15 182.41C20.55 182.59 21.11 182.48 21.83 182.11L26.01 179.99L22.8 173.69L18.63 175.83C17.88 176.2 17.47 176.57 17.39 176.92C17.33 177.19 17.47 177.77 17.81 178.69L17.04 179.09L14.17 173.45L14.93 173.07C15.49 173.91 15.88 174.37 16.09 174.45C16.48 174.63 17.04 174.52 17.77 174.15L27.56 169.16C28.28 168.79 28.72 168.4 28.85 168.01C29.01 167.63 28.93 166.99 28.59 166.09L29.37 165.69L32.25 171.33L31.45 171.73C30.95 170.92 30.44 170.47 29.92 170.37C29.6 170.33 29 170.53 28.13 170.97L23.93 173.12L27.15 179.4L31.63 177.12C32.35 176.75 32.79 176.36 32.92 175.95C33.08 175.57 32.99 174.93 32.64 174.04L33.43 173.64L36.33 179.33L35.53 179.73C35.03 178.91 34.57 178.47 34.17 178.41C33.73 178.33 33.07 178.52 32.2 178.96L22.69 183.81C21.95 184.19 21.53 184.55 21.47 184.89C21.4 185.15 21.55 185.75 21.89 186.69L21.12 187.09Z" /></g></g></g><g ><g clip-path="url(#cp29)"><g ><path fill-rule="evenodd" class="shp0" d="M13.4 171.49L9.31 160.16L12.89 158.79L13.21 159.65C12.12 160.25 11.52 160.77 11.39 161.21C11.27 161.6 11.41 162.37 11.83 163.52L12.92 166.57C13.04 166.91 13.11 167.08 13.12 167.08C13.17 167.13 13.39 167.11 13.73 166.97L18.97 165.09L17.8 161.84C17.51 161 17.17 160.49 16.81 160.35C16.52 160.21 15.87 160.25 14.84 160.47L14.52 159.59L20.24 157.53L20.56 158.4C19.57 158.92 19.01 159.32 18.88 159.64C18.73 159.96 18.81 160.55 19.11 161.37L20.28 164.61L25.96 162.57C26.39 162.41 26.59 162.19 26.6 161.88C26.59 161.53 26.29 160.56 25.71 158.95C25.25 157.68 24.72 156.83 24.12 156.4C23.51 155.97 22.48 155.73 21.03 155.67L20.72 154.84L25.32 154.24L29.45 165.71L28.61 166.01C28.23 165.19 27.89 164.69 27.61 164.51C27.24 164.31 26.67 164.35 25.87 164.63L15.48 168.37C14.65 168.67 14.16 169.03 14.03 169.43C13.92 169.71 14 170.29 14.24 171.2L13.4 171.49Z" /></g></g></g><g ><g clip-path="url(#cp30)"><g ><path fill-rule="evenodd" class="shp0" d="M3.04 148.19L2.01 140.32L3.07 140.19C3.37 141.43 3.64 142.13 3.84 142.32C4.23 142.68 4.92 142.79 5.93 142.67L11.69 141.91L10.57 133.24L4.8 133.99C3.77 134.12 3.15 134.37 2.91 134.75C2.72 135.03 2.64 135.79 2.65 137L1.6 137.15L0.57 129.36L1.64 129.23C1.95 130.44 2.2 131.15 2.41 131.33C2.8 131.69 3.49 131.8 4.49 131.67L18.01 129.91C19.01 129.77 19.68 129.52 20 129.12C20.35 128.73 20.51 127.95 20.48 126.76L21.57 126.63L22.59 134.4L21.49 134.55C21.24 133.39 20.83 132.64 20.27 132.32C19.91 132.13 19.12 132.12 17.92 132.28L12.13 133.03L13.27 141.71L19.44 140.89C20.45 140.77 21.12 140.49 21.45 140.08C21.79 139.69 21.95 138.92 21.91 137.73L23 137.59L24.03 145.45L22.93 145.59C22.67 144.41 22.32 143.71 21.89 143.48C21.4 143.2 20.56 143.13 19.36 143.29L6.24 145C5.2 145.13 4.57 145.39 4.35 145.76C4.16 146.03 4.08 146.79 4.09 148.05L3.04 148.19Z" /></g></g></g><g ><g clip-path="url(#cp31)"><g ><path fill-rule="evenodd" class="shp0" d="M5.61 113.65C7.29 112.2 9.53 111.51 12.32 111.57C14.97 111.64 17.12 112.4 18.73 113.85C20.29 115.27 21.04 117.03 20.99 119.15C20.93 121.23 20.09 122.93 18.47 124.27C16.77 125.64 14.6 126.29 11.95 126.23C9.16 126.15 6.96 125.33 5.35 123.79C3.89 122.37 3.19 120.67 3.24 118.68C3.29 116.67 4.08 114.99 5.61 113.65ZM5.59 122.08C7.23 123.37 9.35 124.05 11.97 124.12C14.56 124.19 16.57 123.65 18.01 122.53C19.21 121.6 19.83 120.45 19.87 119.11C19.91 117.76 19.36 116.57 18.24 115.59C16.83 114.35 14.83 113.71 12.25 113.64C9.63 113.57 7.53 114.13 5.96 115.35C4.88 116.28 4.32 117.4 4.29 118.71C4.25 119.99 4.69 121.12 5.59 122.08Z" /></g></g></g><g ><g clip-path="url(#cp32)"><g ><path fill-rule="evenodd" class="shp0" d="M3.99 108.75L4.56 105.32L19.11 98.67L9.83 97.09C8.55 96.88 7.72 96.89 7.35 97.15C7.07 97.35 6.8 97.92 6.56 98.85L5.68 98.71L6.59 93.39L7.45 93.53C7.41 94.41 7.48 94.95 7.64 95.13C7.91 95.43 8.71 95.68 10.03 95.91L23.36 98.16L23.29 98.57L7.76 106.16L17.32 107.77C18.56 107.99 19.4 107.99 19.84 107.77C20.31 107.56 20.65 107 20.89 106.12L21.76 106.27L20.87 111.59L19.99 111.44C20.05 110.44 19.8 109.79 19.27 109.51C19.03 109.37 18.31 109.21 17.11 109.01L6.25 107.19C5.68 107.43 5.35 107.61 5.21 107.77C5.11 107.92 5 108.29 4.88 108.89L3.99 108.75Z" /></g></g></g><g ><g clip-path="url(#cp33)"><g ><path fill-rule="evenodd" class="shp0" d="M9.25 83.43C9.53 82.55 9.99 81.75 10.6 81.01C11.07 80.43 11.32 80.09 11.33 80.01C11.44 79.69 11.21 79.36 10.67 79.01L10.97 78.05L16.31 79.56L16.01 80.47C14.55 80.47 13.43 80.61 12.69 80.89C11.56 81.33 10.79 82.19 10.39 83.45C9.96 84.76 9.99 86.03 10.44 87.25C11.6 89.23 13.53 90.65 16.23 91.51C18.4 92.21 20.35 92.17 22.08 91.4C23.71 90.68 24.8 89.48 25.32 87.83C25.57 87.07 25.65 86.36 25.57 85.71C25.45 84.92 25.2 84.47 24.84 84.36L20.92 83.09C20.05 82.81 19.48 82.77 19.19 82.97C19.03 83.08 18.75 83.61 18.35 84.57L17.55 84.31L19.33 78.73L20.13 79C19.99 79.75 19.93 80.2 19.99 80.36C20.09 80.68 20.51 80.96 21.23 81.2L26.11 82.76C26.43 82.87 26.63 83.52 26.68 84.73C26.77 86.09 26.64 87.29 26.31 88.33C25.47 90.97 23.95 92.69 21.76 93.51C19.89 94.21 17.69 94.15 15.13 93.32C12.97 92.63 11.31 91.39 10.13 89.59C8.85 87.64 8.56 85.59 9.25 83.43L9.25 83.43Z" /></g></g></g><g ><g clip-path="url(#cp34)"><g ><path fill-rule="evenodd" class="shp0" d="M14.59 63.39L18.83 56.52L19.77 57.11C19.16 58.29 18.88 59.03 18.91 59.35C18.99 59.8 19.47 60.31 20.37 60.87L26.32 64.53C25.04 60.39 24.16 57.6 23.67 56.2C23.23 54.92 22.79 54.15 22.37 53.89C22.23 53.8 22.11 53.8 22 53.88C21.83 54.01 21.49 54.43 21.01 55.12L20.05 54.53L23.96 48.21L24.92 48.8C24.61 49.35 24.36 49.81 24.15 50.23C24 50.53 23.92 50.93 23.92 51.4C23.92 51.85 24.07 52.56 24.36 53.51L26.55 61.39L36.95 59.97C38.33 59.79 39.35 59.56 40 59.28C40.65 58.95 41.21 58.41 41.68 57.65L42.65 58.24L38.16 65.52L37.21 64.93C37.64 64.09 37.87 63.51 37.92 63.2C37.95 63.04 37.87 62.91 37.67 62.79C37.25 62.52 35.19 62.65 31.47 63.16L27.12 63.64L27.63 65.35L32.15 68.15C33.01 68.68 33.69 68.88 34.19 68.76C34.59 68.65 35.15 68.11 35.87 67.12L36.81 67.69L32.6 74.52L31.65 73.93C32.21 72.84 32.43 72.05 32.32 71.57C32.19 71.15 31.6 70.61 30.56 69.97L19.11 62.89C18.19 62.33 17.52 62.13 17.09 62.29C16.79 62.41 16.27 62.97 15.53 63.97L14.59 63.39Z" /></g></g></g><g ><g clip-path="url(#cp35)"><g ><path fill-rule="evenodd" class="shp0" d="M38.39 38.59C40.61 38.55 42.77 39.44 44.88 41.29C46.87 43.04 48.03 44.99 48.33 47.15C48.63 49.23 48.08 51.05 46.68 52.64C45.31 54.21 43.56 54.99 41.47 54.97C39.29 54.95 37.2 54.05 35.2 52.29C33.11 50.45 31.95 48.43 31.71 46.2C31.48 44.19 32.03 42.43 33.35 40.93C34.68 39.41 36.36 38.63 38.39 38.59ZM34.13 41.61C33.28 42.59 32.89 43.73 32.97 45.04C33.4 47.08 34.6 48.96 36.57 50.69C38.52 52.4 40.4 53.28 42.23 53.35C43.75 53.4 44.95 52.92 45.84 51.91C46.73 50.88 47.08 49.64 46.85 48.15C46.55 46.29 45.43 44.52 43.49 42.83C41.53 41.09 39.55 40.19 37.56 40.11C36.15 40.13 35 40.64 34.13 41.61Z" /></g></g></g><g ><g clip-path="url(#cp36)"><g ><path fill-rule="evenodd" class="shp0" d="M40.37 33.71L43.03 31.47L58.43 35.77L52.36 28.59C51.52 27.6 50.88 27.08 50.44 27.03C50.09 27 49.52 27.27 48.73 27.83L48.15 27.15L52.28 23.65L52.85 24.33C52.25 24.99 51.95 25.44 51.95 25.68C51.97 26.08 52.41 26.79 53.28 27.81L62 38.15L61.68 38.41L44.92 34.17L51.17 41.59C51.99 42.55 52.63 43.09 53.11 43.2C53.6 43.35 54.21 43.15 54.97 42.63L55.55 43.31L51.41 46.79L50.84 46.11C51.53 45.37 51.77 44.73 51.53 44.16C51.44 43.91 51 43.32 50.21 42.39L43.11 33.97C42.52 33.79 42.13 33.72 41.93 33.76C41.76 33.8 41.43 34.01 40.96 34.4L40.37 33.71Z" /></g></g></g><g ><g clip-path="url(#cp37)"><g ><path fill-rule="evenodd" class="shp0" d="M60.85 17.76C61.64 17.28 62.51 16.96 63.44 16.8C64.19 16.67 64.59 16.57 64.65 16.52C64.95 16.35 64.99 15.95 64.8 15.33L65.65 14.8L68.72 19.41L67.92 19.91C66.8 18.96 65.85 18.35 65.12 18.07C63.96 17.68 62.83 17.83 61.69 18.52C60.53 19.24 59.72 20.21 59.27 21.44C58.88 23.71 59.43 26.04 60.91 28.44C62.11 30.39 63.61 31.63 65.43 32.16C67.13 32.67 68.73 32.47 70.21 31.55C70.89 31.13 71.41 30.65 71.79 30.11C72.2 29.43 72.29 28.92 72.09 28.6L69.95 25.09C69.47 24.32 69.05 23.91 68.71 23.87C68.51 23.85 67.95 24.08 67.03 24.55L66.59 23.83L71.56 20.75L72.01 21.47C71.4 21.95 71.07 22.25 71 22.41C70.88 22.73 71.01 23.21 71.41 23.85L74.09 28.21C74.28 28.51 74 29.12 73.25 30.08C72.44 31.17 71.56 32 70.64 32.57C68.28 34.03 66 34.36 63.81 33.56C61.95 32.88 60.31 31.4 58.89 29.11C57.71 27.17 57.24 25.15 57.52 23.01C57.81 20.71 58.92 18.95 60.85 17.76L60.85 17.76Z" /></g></g></g><g ><g clip-path="url(#cp38)"><g ><path fill-rule="evenodd" class="shp0" d="M77.28 6.44L84.28 4.05C86.27 3.39 88.01 3.25 89.53 3.68C91.31 4.2 92.51 5.37 93.12 7.2C93.68 8.84 93.63 10.39 92.95 11.83C92.2 13.4 90.51 14.63 87.88 15.52C86.85 15.87 86.19 16.08 85.88 16.15L87.57 21.12C87.91 22.13 88.35 22.76 88.85 23.01C89.29 23.23 90.09 23.19 91.27 22.87L91.63 23.92L84.09 26.48L83.73 25.44C84.81 24.95 85.47 24.37 85.67 23.73C85.75 23.37 85.59 22.63 85.2 21.51L81 9.13C80.67 8.16 80.31 7.57 79.93 7.39C79.56 7.2 78.8 7.23 77.63 7.48L77.28 6.44ZM82.72 6.29C82.65 6.44 82.68 6.75 82.84 7.21L85.39 14.68C85.79 14.6 86.39 14.43 87.2 14.15C90.53 13.01 91.71 10.99 90.72 8.08C89.79 5.33 87.37 4.61 83.47 5.93C83.03 6.09 82.79 6.2 82.72 6.29Z" /></g></g></g><g ><g clip-path="url(#cp39)"><g ><path fill-rule="evenodd" class="shp0" d="M107.19 3.33C108.97 4.68 110.12 6.72 110.63 9.47C111.11 12.08 110.8 14.32 109.72 16.21C108.67 18.03 107.09 19.12 105.01 19.51C102.97 19.88 101.12 19.43 99.48 18.11C97.79 16.75 96.69 14.76 96.21 12.13C95.71 9.4 96.04 7.08 97.23 5.19C98.31 3.47 99.83 2.41 101.79 2.05C103.77 1.69 105.57 2.12 107.19 3.33ZM98.95 5.05C98.03 6.92 97.8 9.15 98.28 11.73C98.75 14.27 99.69 16.13 101.09 17.31C102.25 18.29 103.49 18.65 104.81 18.41C106.15 18.16 107.19 17.39 107.93 16.08C108.84 14.44 109.07 12.36 108.59 9.81C108.11 7.24 107.12 5.31 105.61 4.01C104.48 3.16 103.27 2.84 101.97 3.08C100.71 3.32 99.71 3.97 98.95 5.05Z" /></g></g></g><g ><g clip-path="url(#cp40)"><g ><path fill-rule="evenodd" class="shp0" d="M111.59 0.87L118.07 0.53L118.11 1.45C117.16 1.49 116.55 1.63 116.29 1.85C115.96 2.13 115.81 2.75 115.87 3.68L116.45 15.51C116.48 15.96 116.59 16.24 116.8 16.33C117.01 16.41 117.61 16.43 118.61 16.37C120.53 16.28 121.77 16.08 122.35 15.77C123.25 15.33 123.97 14.31 124.51 12.67L125.39 12.63L124.57 17.31L112.43 17.91L112.39 17.03C113.24 16.89 113.8 16.72 114.03 16.49C114.39 16.11 114.55 15.48 114.49 14.61L113.96 3.77C113.92 2.89 113.72 2.32 113.37 2.05C113.12 1.88 112.53 1.77 111.63 1.76L111.59 0.87Z" /></g></g></g><g ><g clip-path="url(#cp41)"><g ><path fill-rule="evenodd" class="shp0" d="M126.88 0.19L133.29 0.71L133.21 1.67C132.48 1.67 131.95 1.69 131.65 1.76C131.49 1.83 131.41 1.96 131.39 2.19C131.37 2.43 131.47 2.77 131.68 3.25L134.35 8.84L137.97 3.53C138.21 3.19 138.33 2.92 138.36 2.72C138.39 2.32 137.93 2.08 136.99 2L137.07 1.03L142.09 1.44L142.01 2.4C141.29 2.37 140.79 2.44 140.52 2.6C140.19 2.84 139.65 3.45 138.93 4.45L134.76 10.23L134.39 14.73C134.32 15.6 134.43 16.21 134.71 16.55C134.99 16.87 135.67 17.09 136.76 17.23L136.69 18.12L129.73 17.55L129.8 16.65C130.93 16.68 131.64 16.53 131.93 16.21C132.23 15.92 132.41 15.27 132.49 14.25L132.84 10.11L130.17 4.52C129.52 3.15 129.09 2.25 128.88 1.83C128.37 1.44 127.97 1.24 127.67 1.21C127.6 1.2 127.51 1.2 127.4 1.19C127.27 1.19 127.07 1.19 126.8 1.16L126.88 0.19Z" /></g></g></g><g ><g clip-path="url(#cp42)"><g ><path fill-rule="evenodd" class="shp0" d="M144.45 1.88L156.85 4.55L156.05 8.97L155.13 8.79C155.19 7.29 155.04 6.32 154.68 5.87C154.35 5.44 153.59 5.11 152.4 4.84L151.36 4.63L148.69 16.99C148.52 17.81 148.55 18.41 148.76 18.8C148.99 19.15 149.59 19.47 150.57 19.75L150.39 20.61L143.84 19.21L144.04 18.33C145.07 18.48 145.75 18.4 146.09 18.12C146.41 17.84 146.68 17.23 146.88 16.28L149.48 4.21L148.37 3.97C147.21 3.73 146.4 3.73 145.93 3.99C145.41 4.24 144.87 5.07 144.31 6.45L143.36 6.24L144.45 1.88Z" /></g></g></g><g ><g clip-path="url(#cp43)"><g ><path fill-rule="evenodd" class="shp0" d="M158.88 5.11L170.28 9L169.11 12.67L168.23 12.37C168.45 11.15 168.43 10.35 168.16 9.96C167.93 9.63 167.24 9.27 166.09 8.87L163.01 7.81C162.68 7.71 162.51 7.64 162.49 7.65C162.41 7.67 162.32 7.84 162.2 8.2L160.39 13.47L163.65 14.59C164.51 14.88 165.09 14.93 165.44 14.75C165.73 14.6 166.11 14.07 166.59 13.13L167.47 13.43L165.49 19.19L164.61 18.88C164.83 17.8 164.87 17.09 164.71 16.8C164.53 16.48 164.04 16.19 163.2 15.89L159.95 14.77L157.99 20.49C157.84 20.92 157.88 21.23 158.12 21.41C158.4 21.63 159.35 22.01 160.97 22.56C162.25 23 163.24 23.12 163.95 22.91C164.67 22.71 165.49 22.05 166.45 20.96L167.29 21.24L164.88 25.2L153.35 21.25L153.64 20.41C154.52 20.63 155.12 20.68 155.44 20.56C155.83 20.41 156.16 19.93 156.44 19.13L160.01 8.69C160.29 7.85 160.33 7.25 160.09 6.88C159.95 6.64 159.44 6.33 158.59 5.95L158.88 5.11Z" /></g></g></g><g ><g clip-path="url(#cp44)"><g ><path fill-rule="evenodd" class="shp0" d="M180.39 13.17C181.13 13.53 181.85 14.04 182.55 14.69C183.21 15.31 183.55 15.61 183.55 15.61C183.8 15.73 184.09 15.6 184.43 15.2L185.36 15.59L182.97 20.96L182.12 20.63C182.85 17.45 182.16 15.35 180.04 14.32C179.43 14.03 178.76 13.84 178.01 13.75C177.19 13.68 176.48 13.76 175.88 13.99C174.2 14.68 172.73 16.28 171.51 18.79C170.41 21 170.17 23.01 170.77 24.81C171.28 26.35 172.25 27.47 173.68 28.15C175.28 28.93 177.17 28.88 179.36 28L179.52 28.79C178.89 29.23 178.13 29.53 177.25 29.68C175.57 30 174 29.8 172.52 29.08C170.68 28.19 169.44 26.83 168.8 25C168.07 22.87 168.35 20.48 169.63 17.81C170.83 15.37 172.63 13.77 175.04 13.04C176.73 12.23 178.52 12.27 180.39 13.17Z" /></g></g></g><g ><g clip-path="url(#cp45)"><g ><path fill-rule="evenodd" class="shp0" d="M187.91 17.39L193.24 20.91L192.76 21.63C191.84 21.16 191.27 20.95 191.05 20.97C190.63 21.01 190.19 21.39 189.73 22.07L187.15 25.97L193.04 29.87L195.63 25.96C196.08 25.27 196.27 24.75 196.16 24.4C196.08 24.15 195.67 23.69 194.92 23.05L195.39 22.33L200.67 25.83L200.2 26.55C199.29 26.09 198.72 25.87 198.51 25.91C198.08 25.95 197.64 26.31 197.19 27L191.13 36.16C190.68 36.84 190.49 37.39 190.56 37.79C190.61 38.2 191 38.72 191.75 39.32L191.25 40.07L185.97 36.57L186.47 35.83C187.31 36.29 187.97 36.44 188.47 36.27C188.77 36.13 189.2 35.67 189.73 34.85L192.33 30.93L186.45 27.04L183.68 31.23C183.23 31.91 183.04 32.47 183.12 32.88C183.17 33.29 183.56 33.8 184.31 34.41L183.81 35.15L178.48 31.61L178.97 30.87C179.83 31.35 180.44 31.51 180.81 31.36C181.24 31.21 181.72 30.73 182.27 29.92L188.15 21.01C188.61 20.31 188.8 19.79 188.69 19.47C188.63 19.2 188.2 18.76 187.43 18.11L187.91 17.39Z" /></g></g></g><g ><g clip-path="url(#cp46)"><g ><path fill-rule="evenodd" class="shp0" d="M202.48 27.15L205.09 29.44L203.11 45.31L209.32 38.24C210.17 37.27 210.59 36.56 210.59 36.11C210.56 35.76 210.21 35.24 209.53 34.53L210.12 33.87L214.19 37.43L213.6 38.09C212.87 37.6 212.37 37.37 212.13 37.4C211.75 37.48 211.11 38.03 210.23 39.03L201.29 49.19L200.99 48.91L202.69 31.71L196.29 38.99C195.45 39.93 195.01 40.65 194.97 41.15C194.91 41.65 195.2 42.24 195.83 42.89L195.24 43.56L191.19 40L191.77 39.33C192.59 39.91 193.27 40.04 193.8 39.73C194.03 39.6 194.55 39.08 195.36 38.16L202.63 29.89C202.72 29.28 202.73 28.89 202.67 28.69C202.59 28.53 202.33 28.24 201.88 27.83L202.48 27.15Z" /></g></g></g><g ><g clip-path="url(#cp47)"><g ><path fill-rule="evenodd" class="shp0" d="M215.27 38.88L220 43.95L219.35 44.56C218.61 43.85 218.03 43.45 217.6 43.36C217.16 43.31 216.61 43.59 215.96 44.2L208.05 51.59C207.4 52.19 207.11 52.75 207.16 53.27C207.19 53.64 207.53 54.2 208.2 54.96L207.55 55.59L202.81 50.51L203.47 49.89C204.24 50.65 204.84 51.04 205.27 51.07C205.68 51.09 206.2 50.83 206.81 50.27L214.73 42.87C215.36 42.28 215.67 41.75 215.67 41.25C215.65 40.92 215.29 40.32 214.61 39.49L215.27 38.88Z" /></g></g></g><g ><g clip-path="url(#cp48)"><g ><path fill-rule="evenodd" class="shp0" d="M226.33 51.08C226.84 51.73 227.25 52.49 227.6 53.39C227.92 54.23 228.08 54.65 228.08 54.67C228.25 54.88 228.57 54.88 229.05 54.68L229.72 55.44L225.19 59.2L224.57 58.52C226.64 56 226.96 53.81 225.51 51.95C225.09 51.41 224.57 50.95 223.96 50.53C223.24 50.11 222.56 49.85 221.93 49.8C220.12 49.67 218.11 50.45 215.88 52.16C213.92 53.65 212.81 55.35 212.55 57.24C212.32 58.84 212.69 60.27 213.67 61.52C214.76 62.92 216.48 63.72 218.83 63.89L218.63 64.68C217.87 64.8 217.05 64.73 216.2 64.47C214.55 64.01 213.23 63.13 212.23 61.84C210.96 60.21 210.45 58.44 210.71 56.52C210.99 54.29 212.29 52.27 214.63 50.45C216.79 48.79 219.11 48.16 221.6 48.59C223.48 48.6 225.07 49.43 226.33 51.08L226.33 51.08Z" /></g></g></g><g ><g clip-path="url(#cp49)"><g ><path fill-rule="evenodd" class="shp0" d="M238.95 64.97L242.4 72.27L241.4 72.73C240.75 71.64 240.19 70.99 239.73 70.77C239.36 70.65 238.71 70.83 237.77 71.27L228.79 75.51C224.91 77.35 223.68 79.76 225.11 82.76C225.89 84.44 227.27 85.33 229.23 85.41C230.07 85.47 231.44 85.05 233.31 84.16L240.91 80.57C242.37 79.88 243.23 79.33 243.48 78.92C243.75 78.53 243.69 77.84 243.33 76.83L244.33 76.36L247.16 82.33L246.17 82.8C245.49 81.79 244.93 81.24 244.48 81.15C243.93 81.04 242.96 81.32 241.56 81.97L234.23 85.44C232.16 86.43 230.51 86.91 229.31 86.88C226.73 86.92 224.79 85.52 223.45 82.71C222.19 80.03 222.41 77.73 224.12 75.81C224.84 75 226.13 74.16 228.01 73.27L236.76 69.13C237.73 68.67 238.29 68.19 238.47 67.68C238.56 67.36 238.39 66.61 237.95 65.44L238.95 64.97Z" /></g></g></g><g ><g clip-path="url(#cp50)"><g ><path fill-rule="evenodd" class="shp0" d="M245.28 85.84L246.27 89.17L236.15 101.55L245.16 98.87C246.4 98.49 247.13 98.12 247.36 97.73C247.53 97.43 247.51 96.8 247.32 95.85L248.17 95.6L249.71 100.77L248.87 101.03C248.51 100.21 248.21 99.76 247.99 99.67C247.61 99.52 246.79 99.64 245.51 100.03L232.53 103.87L232.41 103.47L243.03 89.81L233.73 92.56C232.52 92.92 231.76 93.31 231.47 93.69C231.15 94.08 231.08 94.73 231.25 95.63L230.41 95.88L228.87 90.71L229.72 90.45C230.11 91.39 230.61 91.85 231.23 91.88C231.49 91.88 232.21 91.72 233.39 91.37L243.93 88.24C244.33 87.77 244.56 87.44 244.6 87.25C244.63 87.07 244.57 86.68 244.41 86.09L245.28 85.84Z" /></g></g></g><g ><g clip-path="url(#cp51)"><g ><path fill-rule="evenodd" class="shp0" d="M249.85 102.61L251.15 109.43L250.27 109.6C250.03 108.6 249.75 107.95 249.43 107.65C249.09 107.37 248.48 107.31 247.6 107.48L236.96 109.49C236.09 109.67 235.55 109.97 235.31 110.44C235.13 110.76 235.12 111.43 235.28 112.44L234.4 112.6L233.11 105.79L233.99 105.61C234.24 106.67 234.53 107.32 234.88 107.56C235.23 107.81 235.8 107.87 236.63 107.72L247.27 105.69C248.12 105.53 248.67 105.25 248.92 104.84C249.09 104.55 249.11 103.85 248.97 102.77L249.85 102.61Z" /></g></g></g><g ><g clip-path="url(#cp52)"><g ><path fill-rule="evenodd" class="shp0" d="M251.65 111.03L252.17 117.09L251.28 117.17C251.15 116.33 251.01 115.79 250.89 115.55C250.8 115.39 250.61 115.32 250.32 115.35C250.08 115.37 249.21 115.73 247.73 116.44L238.89 120.45L249.32 123.15C249.96 123.31 250.49 123.36 250.89 123.33C251.28 123.29 251.52 123.16 251.59 122.91C251.64 122.8 251.67 122.36 251.67 121.59L252.56 121.51L252.96 126.27L252.08 126.33C251.96 125.75 251.8 125.37 251.6 125.23C251.37 125.04 250.8 124.83 249.88 124.59L235.12 120.45L248.52 113.84C249.57 113.32 250.24 112.85 250.55 112.45C250.68 112.25 250.75 111.8 250.76 111.11L251.65 111.03Z" /></g></g></g><g ><g clip-path="url(#cp53)"><g ><path fill-rule="evenodd" class="shp0" d="M252.91 128.49L252.39 140.53L248.55 140.45L248.59 139.52C249.81 139.39 250.57 139.13 250.87 138.77C251.13 138.47 251.28 137.69 251.33 136.47L251.47 133.23C251.49 132.88 251.49 132.69 251.48 132.68C251.45 132.61 251.25 132.57 250.88 132.55L245.31 132.32L245.16 135.76C245.12 136.65 245.24 137.24 245.51 137.52C245.73 137.76 246.36 137.97 247.39 138.16L247.35 139.09L241.28 138.83L241.32 137.89C242.41 137.8 243.09 137.63 243.33 137.4C243.6 137.15 243.75 136.59 243.77 135.71L243.92 132.25L237.88 132C237.44 131.99 237.16 132.11 237.04 132.39C236.92 132.72 236.83 133.73 236.75 135.45C236.69 136.8 236.87 137.79 237.25 138.41C237.65 139.04 238.52 139.65 239.84 140.25L239.81 141.13L235.33 139.95L235.85 127.77L236.73 127.81C236.79 128.72 236.91 129.31 237.09 129.57C237.36 129.91 237.91 130.09 238.76 130.13L249.79 130.6C250.67 130.64 251.25 130.49 251.55 130.17C251.73 129.96 251.89 129.39 252.01 128.45L252.91 128.49Z" /></g></g></g><g ><g clip-path="url(#cp54)"><g ><path fill-rule="evenodd" class="shp0" d="M252.17 143.59L251.13 149.73C250.89 151.16 250.45 152.29 249.8 153.13C248.8 154.41 247.43 154.91 245.65 154.61C244.17 154.36 243.15 153.6 242.6 152.35C242.28 151.67 242.13 150.8 242.13 149.75L235.08 153.08C234.57 153.29 234.15 153.97 233.8 155.12L232.93 154.97L233.52 151.53L242.17 147.57L242.35 146.05L237.8 145.29C236.99 145.15 236.4 145.2 236.04 145.43C235.69 145.65 235.4 146.23 235.16 147.16L234.28 147L235.35 140.75L236.21 140.89C236.16 141.84 236.27 142.45 236.53 142.72C236.84 143.05 237.48 143.31 238.44 143.47L248.63 145.19C249.49 145.33 250.08 145.35 250.39 145.21C250.75 144.92 251.04 144.33 251.29 143.44L252.17 143.59ZM250.08 148.63C250.15 148.08 250.16 147.73 250.12 147.6C250.05 147.44 249.83 147.32 249.44 147.25L243.57 146.27C243.32 147.84 243.27 149.04 243.43 149.88C243.69 151.43 244.57 152.33 246.05 152.59C247.48 152.83 248.55 152.36 249.24 151.17C249.57 150.65 249.81 150.04 249.96 149.35C250.01 149.12 250.05 148.88 250.08 148.63Z" /></g></g></g><g ><g clip-path="url(#cp55)"><g ><path fill-rule="evenodd" class="shp0" d="M248.07 165C247.92 165.51 247.59 166.08 247.08 166.73C246.63 167.32 246.39 167.64 246.36 167.72C246.32 167.88 246.32 167.99 246.4 168.03C246.57 168.11 246.79 168.23 247.05 168.39L246.8 169.27L241.28 168.16L241.56 167.21C242.89 167.35 244.01 167.24 244.92 166.88C246 166.45 246.68 165.76 246.96 164.79C247.13 164.21 247.11 163.64 246.88 163.08C246.6 162.43 246.11 161.99 245.37 161.77C244.41 161.49 243.31 161.8 242.03 162.71C240.93 163.4 239.73 164.33 238.41 165.51C236.85 166.51 235.36 166.84 233.92 166.49C232.77 166.15 231.89 165.48 231.28 164.51C230.57 163.35 230.44 162.03 230.88 160.55C231.08 159.88 231.41 159.28 231.91 158.72C232.33 158.19 232.57 157.87 232.6 157.77C232.69 157.44 232.49 157.15 231.97 156.93L232.24 156.05L237.79 156.96L237.52 157.87C234.43 157.85 232.61 158.8 232.05 160.68C231.81 161.47 231.91 162.28 232.32 163.11C232.67 163.68 233.19 164.07 233.84 164.27C234.55 164.48 235.21 164.45 235.87 164.2C236.61 163.89 237.71 163.16 239.16 162C240.44 160.92 241.35 160.27 241.88 160.03C242.84 159.55 243.88 159.47 245 159.8C246.33 160.19 247.27 160.99 247.8 162.17C248.31 162.97 248.39 163.92 248.07 165L248.07 165Z" /></g></g></g><g ><g clip-path="url(#cp56)"><g ><path fill-rule="evenodd" class="shp0" d="M245.21 172.51L242.65 178.95L241.81 178.63C242.15 177.65 242.25 176.96 242.15 176.53C242.01 176.12 241.53 175.75 240.71 175.41L230.64 171.4C229.81 171.08 229.19 171.05 228.73 171.32C228.41 171.49 228.05 172.05 227.64 172.99L226.81 172.65L229.37 166.2L230.21 166.53C229.85 167.56 229.76 168.27 229.92 168.67C230.07 169.05 230.53 169.41 231.31 169.72L241.37 173.72C242.17 174.04 242.8 174.09 243.23 173.88C243.53 173.73 243.92 173.16 244.37 172.17L245.21 172.51Z" /></g></g></g><g ><g clip-path="url(#cp57)"><g ><path fill-rule="evenodd" class="shp0" d="M242.07 180.61L236.27 191.91L232.19 189.99L232.63 189.13C234.05 189.59 235.03 189.69 235.56 189.45C236.05 189.25 236.57 188.6 237.13 187.52L237.61 186.57L226.36 180.8C225.61 180.41 225.03 180.28 224.6 180.39C224.2 180.52 223.75 181.01 223.21 181.89L222.43 181.49L225.48 175.53L226.27 175.95C225.87 176.91 225.76 177.59 225.95 178C226.13 178.37 226.67 178.79 227.52 179.23L238.49 184.87L239.01 183.87C239.56 182.8 239.77 182.01 239.64 181.51C239.52 180.93 238.87 180.2 237.68 179.28L238.12 178.43L242.07 180.61Z" /></g></g></g><g ><g clip-path="url(#cp58)"><g ><path fill-rule="evenodd" class="shp0" d="M235.08 194.03L231.39 199.29L230.59 198.75C230.97 198.11 231.21 197.64 231.31 197.35C231.33 197.19 231.25 197.04 231.07 196.91C230.88 196.77 230.52 196.68 230 196.63L223.84 196.11L226.59 201.91C226.76 202.29 226.93 202.53 227.09 202.65C227.43 202.88 227.87 202.61 228.41 201.83L229.21 202.39L226.32 206.52L225.52 205.96C225.91 205.35 226.11 204.89 226.11 204.57C226.07 204.16 225.8 203.4 225.31 202.27L222.44 195.75L218.73 193.16C218.01 192.65 217.44 192.44 217.01 192.52C216.59 192.59 216.04 193.07 215.39 193.95L214.64 193.43L218.65 187.72L219.39 188.23C218.8 189.19 218.56 189.88 218.69 190.29C218.8 190.69 219.27 191.17 220.09 191.76L223.52 194.16L229.68 194.68C231.19 194.81 232.17 194.89 232.65 194.92C233.24 194.68 233.63 194.44 233.8 194.17C233.84 194.13 233.88 194.05 233.96 193.96C234.01 193.84 234.12 193.68 234.28 193.47L235.08 194.03Z" /></g></g></g></g><path class="shp1" d="M55.63 90.35C63.1 88.76 70.93 89.41 78.07 92.33L118.38 52.02C123.99 46.42 133.29 46.61 138.9 52.22C144.5 57.83 144.5 67.2 138.9 72.81L128.56 83.15L113.05 67.65L100.76 79.94L144.22 123.38L156.5 111.09L141.01 95.61L151.24 85.38L151.3 85.32C163.81 72.82 163.8 52.55 151.3 40.06C138.8 27.55 118.49 27.48 105.99 39.98C105.99 39.98 55.59 90.38 55.63 90.35M166.01 54.78C167.61 62.24 166.95 70.07 164.03 77.22L204.34 117.53C209.95 123.14 209.75 132.44 204.15 138.04C198.54 143.65 189.16 143.65 183.55 138.04L173.22 127.7L188.71 112.2L176.43 99.91L132.98 143.37L145.27 155.64L160.75 140.16L170.98 150.38L171.04 150.45C183.54 162.94 203.81 162.94 216.31 150.45C228.81 137.94 228.89 117.64 216.39 105.14C216.39 105.14 165.99 54.74 166.01 54.78M201.66 165.09C194.19 166.68 186.37 166.01 179.22 163.1L138.91 203.42C133.3 209.03 124 208.82 118.4 203.22C112.79 197.61 112.79 188.24 118.4 182.63L128.73 172.28L144.23 187.79L156.53 175.51L113.07 132.05L100.79 144.33L116.28 159.83L106.05 170.05L105.99 170.12C93.49 182.61 93.49 202.88 105.99 215.38C118.49 227.88 138.8 227.96 151.3 215.46C151.3 215.46 201.7 165.06 201.66 165.09M91.31 200.68C89.71 193.21 90.37 185.4 93.29 178.24L52.98 137.93C47.37 132.33 47.57 123.03 53.18 117.43C58.78 111.81 68.16 111.81 73.76 117.43L84.11 127.76L68.6 143.26L80.89 155.55L124.34 112.1L112.06 99.81L96.56 115.31L86.33 105.08L86.28 105.02C73.78 92.51 53.51 92.52 41.01 105.02C28.51 117.52 28.43 137.82 40.93 150.32C40.93 150.32 91.33 200.73 91.31 200.68" /></svg>